<svg width="18" height="18" viewBox="0 0 18 18" fill="none" xmlns="http://www.w3.org/2000/svg">
<path id="vector" d="M14.1571 6.5C14.9795 7.11687 15.7223 7.83249 16.3688 8.63036C16.4563 8.73827 16.5 8.86913 16.5 9M14.1571 11.5C14.9795 10.8831 15.7223 10.1675 16.3688 9.36964C16.4563 9.26173 16.5 9.13087 16.5 9M16.5 9H5.66667M9.83333 2.77316C8.94874 1.98142 7.78059 1.5 6.5 1.5C3.73858 1.5 1.5 3.73858 1.5 6.5V11.5C1.5 14.2614 3.73858 16.5 6.5 16.5C7.78059 16.5 8.94874 16.0186 9.83333 15.2268" stroke="black" stroke-opacity="0.32" stroke-width="2" stroke-linecap="round" stroke-linejoin="round"/>
</svg>
